<?xml version="1.0" encoding="UTF-8"?>
<svg width="57px" height="43px" viewBox="0 0 57 43" version="1.1" xmlns="http://www.w3.org/2000/svg" xmlns:xlink="http://www.w3.org/1999/xlink">
    <!-- Generator: Sketch 43 (38999) - http://www.bohemiancoding.com/sketch -->
    <title>if_social_github_710296</title>
    <desc>Created with Sketch.</desc>
    <defs>
        <linearGradient x1="50%" y1="0%" x2="50%" y2="100%" id="linearGradient-1">
            <stop stop-color="#F2033B" offset="0%"></stop>
            <stop stop-color="#774747" offset="100%"></stop>
        </linearGradient>
    </defs>
    <g id="Page-1" stroke="none" stroke-width="1" fill="none" fill-rule="evenodd">
        <g id="if_social_github_710296" fill-rule="nonzero" fill="url(#linearGradient-1)">
            <path d="M41.4,0.2 C42.1,1.9 42.6,4.6 41.9,6.6 C44.8,9.1 45.8,15 44.4,19.9 C48.5,20.2 53.4,19.7 56.5,21 C53.6,20.6 49.5,19.9 45.7,20.1 C45,20.1 43.9,20.1 44,21.1 C48.4,21.4 52.8,21.8 56.4,22.9 C52.8,22.3 48.5,21.4 44,21.3 C42.2,24.9 38.5,26.7 33.3,27.1 C33.8,28.3 34.9,28.8 35.2,30.7 C35.6,33.6 34.6,37.8 35.6,39.7 C36.1,40.6 36.8,40.6 37.3,41.4 C36,42.9 32.9,41.2 32.6,39.7 C32,37 33.5,32.9 31.9,31.1 C32,34 31.2,38.1 32,40.7 C32.3,41.7 33.2,42.1 33,43 C27.2,43.6 29.6,35.5 28.7,30.7 C27.8,30.8 28.2,32 28.2,32.5 C28.2,37.2 29.2,43.6 24.1,43 C24,42 24.8,41.7 25.1,40.8 C26,38.2 24.9,34.2 25.4,31.1 C23.5,32.6 25.6,37.6 24.4,40.2 C23.7,41.7 21.5,42.3 19.8,41.7 C20,40.6 21.2,40.8 21.7,39.7 C22.4,38.3 21.7,36.2 21.9,34 C18.3,34.7 15.6,33.9 14.2,31.7 C13.6,30.7 13.4,29.5 12.7,28.6 C12,27.7 10.8,27.6 10.5,26.4 C14.9,25.3 15.1,30.9 19,31.1 C20.2,31.1 20.8,30.7 22,30.5 C22.3,29.1 23,28 24,27.3 C19.1,26.6 15,25.1 13.1,21.4 C8.6,21.6 4.5,22.2 0.7,23.1 C4.2,21.8 8.4,21.4 13,21.3 C12.7,19.7 10.4,20.1 8.9,20.2 C6.2,20.3 2.8,20.7 0.6,21.1 C3.7,20 8.1,20.1 12.4,20.1 C11.1,16 11.6,9.6 14.4,7.2 C13.6,5.2 13.8,1.9 14.9,0.3 C18.1,0.4 20,1.8 22,3.1 C24.5,2.4 27.1,2.1 30.4,2.2 C31.8,2.3 33.3,2.9 34.4,2.8 C35.4,2.7 36.6,1.5 37.6,1.1 C38.7,0.5 39.8,0.3 41.4,0.2 Z" id="Github"></path>
        </g>
    </g>
</svg>